<svg xmlns="http://www.w3.org/2000/svg" viewBox="0 0 56.81 16.96"><defs><style>.cls-1{fill:#fff;}</style></defs><title>Asset 2</title><g id="Layer_2" data-name="Layer 2"><g id="OBJECTS"><path class="cls-1" d="M39,15h-.67l-.3,2h-.47l.3-2h-.66l.05-.37H39Z"/><path class="cls-1" d="M39.87,16.68a.66.66,0,0,1-.23.21.6.6,0,0,1-.3.07.45.45,0,0,1-.4-.19.79.79,0,0,1-.07-.58l.15-1h.47l-.16,1a.55.55,0,0,0,0,.31c0,.06.09.08.18.08a.64.64,0,0,0,.2,0,.79.79,0,0,0,.15-.12l.18-1.25h.47l-.26,1.74h-.39Z"/><path class="cls-1" d="M42.56,15.59h-.17a.35.35,0,0,0-.18.05.3.3,0,0,0-.12.13l-.18,1.17h-.46l.26-1.74h.43v.25a.49.49,0,0,1,.19-.21.4.4,0,0,1,.23-.08h.13Z"/><path class="cls-1" d="M43.33,17a.69.69,0,0,1-.57-.24.74.74,0,0,1-.13-.61V16a1.16,1.16,0,0,1,.3-.65.86.86,0,0,1,.62-.24.58.58,0,0,1,.5.22.73.73,0,0,1,.11.58l0,.24h-1a.43.43,0,0,0,.06.29.35.35,0,0,0,.28.11,1.12,1.12,0,0,0,.27,0l.24-.1.09.29a1,1,0,0,1-.31.14A1.23,1.23,0,0,1,43.33,17Zm.18-1.44a.33.33,0,0,0-.23.09.64.64,0,0,0-.13.26h.57v0a.44.44,0,0,0,0-.24C43.67,15.54,43.61,15.52,43.51,15.52Z"/><path class="cls-1" d="M45,16.28v.16h0l0-.16.45-1.09H46l-.85,1.74h-.45l-.33-1.74h.49Z"/><path class="cls-1" d="M46.45,16.93H46l.26-1.74h.47Zm.32-2.16h-.46l0-.35h.47Z"/><path class="cls-1" d="M47.85,16.44a.14.14,0,0,0-.05-.13.66.66,0,0,0-.27-.1A1,1,0,0,1,47.1,16a.35.35,0,0,1-.12-.34.6.6,0,0,1,.25-.38.81.81,0,0,1,.52-.16.75.75,0,0,1,.5.16.41.41,0,0,1,.15.39h-.46a.23.23,0,0,0,0-.17.25.25,0,0,0-.19-.06.35.35,0,0,0-.18,0,.2.2,0,0,0-.09.14.12.12,0,0,0,.05.13.51.51,0,0,0,.26.09,1.06,1.06,0,0,1,.45.19.36.36,0,0,1,.11.35.52.52,0,0,1-.25.38,1,1,0,0,1-.55.15.7.7,0,0,1-.52-.18.46.46,0,0,1-.15-.4h.44a.23.23,0,0,0,.06.21.36.36,0,0,0,.22.06.32.32,0,0,0,.2-.06A.17.17,0,0,0,47.85,16.44Z"/><path class="cls-1" d="M49.42,14.76l-.06.43h.29l0,.33h-.29l-.13.88c0,.07,0,.12,0,.15a.12.12,0,0,0,.1,0h.07l.06,0v.34l-.14,0h-.15a.44.44,0,0,1-.35-.14.5.5,0,0,1-.07-.42l.13-.88h-.25l0-.33h.25l.07-.43Z"/><path class="cls-1" d="M50.71,16.93l0-.13a.66.66,0,0,1,0-.14,1,1,0,0,1-.23.22.55.55,0,0,1-.29.08.54.54,0,0,1-.4-.14.42.42,0,0,1-.09-.38.54.54,0,0,1,.25-.41,1.14,1.14,0,0,1,.6-.13h.26l0-.14a.22.22,0,0,0,0-.2.25.25,0,0,0-.19-.06.27.27,0,0,0-.18.05.24.24,0,0,0-.09.15h-.45a.53.53,0,0,1,.25-.38,1,1,0,0,1,.55-.16.73.73,0,0,1,.48.16.47.47,0,0,1,.13.45l-.11.72a1.93,1.93,0,0,0,0,.23.89.89,0,0,0,0,.22Zm-.38-.32a.46.46,0,0,0,.22-.06.56.56,0,0,0,.16-.14l0-.25h-.26a.34.34,0,0,0-.23.08.25.25,0,0,0-.11.18.16.16,0,0,0,0,.14A.21.21,0,0,0,50.33,16.61Z"/><path class="cls-1" d="M52,16.93H51.5l.06-.42H52Z"/><path class="cls-1" d="M52.93,16.93h-.47l.06-.42H53Z"/><path class="cls-1" d="M53.89,16.93h-.47l.06-.42H54Z"/><path class="cls-1" d="M3,7.2v3.67h-2V.75H4.8a4,4,0,0,1,2.75.89A3,3,0,0,1,8.55,4a3,3,0,0,1-1,2.33A4,4,0,0,1,4.8,7.2ZM3,5.63H4.8a1.7,1.7,0,0,0,1.29-.46A1.65,1.65,0,0,0,6.52,4a1.72,1.72,0,0,0-.43-1.2A1.65,1.65,0,0,0,4.8,2.31H3Z"/><path class="cls-1" d="M14.45,9.75a2.5,2.5,0,0,1-.88.94,2.41,2.41,0,0,1-1.24.32,2.29,2.29,0,0,1-1.86-.8A3.86,3.86,0,0,1,9.8,7.7V3.35h2V7.72a2.39,2.39,0,0,0,.27,1.35,1,1,0,0,0,.83.36,2.09,2.09,0,0,0,.83-.15,1.51,1.51,0,0,0,.57-.46V3.35h2v7.52H14.67Z"/><path class="cls-1" d="M24.66,7.32A4.37,4.37,0,0,1,23.91,10a2.52,2.52,0,0,1-2.17,1,2.25,2.25,0,0,1-1.15-.28,2.29,2.29,0,0,1-.83-.81l-.17.95H17.88V0h2V4.15a2.35,2.35,0,0,1,.78-.7,2.2,2.2,0,0,1,1.05-.24,2.49,2.49,0,0,1,2.18,1.08,5,5,0,0,1,.75,2.88Zm-2-.15a3.85,3.85,0,0,0-.33-1.74,1.12,1.12,0,0,0-1.1-.64,1.55,1.55,0,0,0-.8.19,1.48,1.48,0,0,0-.51.57V8.73a1.24,1.24,0,0,0,.52.52,1.67,1.67,0,0,0,.81.18,1.13,1.13,0,0,0,1.09-.55,3.18,3.18,0,0,0,.32-1.56Z"/><path class="cls-1" d="M28,10.87H26V0h2Z"/><path class="cls-1" d="M31.84,1.55h-2V0h2Zm0,9.32h-2V3.35h2Z"/><path class="cls-1" d="M37.84,7.32H33.75V5.76h4.09Z"/><polygon class="cls-1" points="39.27 5.5 39.27 9.34 41.83 10.61 41.83 6.59 42.54 6.59 45.07 11.01 48.35 11.01 44.91 5.5 39.27 5.5"/><polygon class="cls-1" points="44.6 5.01 48.06 0 44.85 0 42.36 4.31 41.83 4.31 41.83 0 39.27 0 39.27 5.11 44.66 5.11 44.6 5.01"/><rect class="cls-1" x="51.34" y="8.65" width="2.56" height="2.36"/><polygon class="cls-1" points="48.48 0 48.48 1.97 51.34 1.97 51.34 8.26 53.9 8.26 53.9 1.97 56.81 1.97 56.81 0.85 55.1 0 48.48 0"/><polygon class="cls-1" points="36.93 8.61 37.09 8.69 37.09 8.29 36.93 8.61"/><path class="cls-1" d="M54.34,12c.22,0,.4.37.4.82s-.18.81-.4.81H.4c-.22,0-.4-.36-.4-.81S.18,12,.4,12Z"/></g></g></svg>